# xmcd
#
# Track frame offsets:
#	150
#	10492
#	21792
#	32814
#	45181
#	54516
#	66156
#	77379
#	87176
#	98856
#	109853
#	121996
#	131283
#	141593
#	153828
#	165308
#	176053
#	188493
#	201416
#	220363
#	231333
#	240288
#	251838
#	259936
#	271134
#
# Disc length: 3785 seconds
#
# Revision: 1
# Processed by: cddbd v1.5.2PL0 Copyright (c) Steve Scherf et al.
# Submitted via: audiograbber 1.83.01
#
DISCID=510ec719
DTITLE=Elvis Presley - Elvis Presley
DYEAR=1900
DGENRE=
TTITLE0=Baby Let's Play House
TTITLE1=I Forgot To Remember To Forget
TTITLE2=Mystery Train
TTITLE3=I Love You Because
TTITLE4=Blue Moon Of Kentucky
TTITLE5=Just Because
TTITLE6=I Don't Care If The Sun Don't Shine
TTITLE7=Heartbreak Hotel
TTITLE8=I Was The One
TTITLE9=I'm Counting On You
TTITLE10=I Want You, I Need You, I Love You
TTITLE11=Don't Be Cruel
TTITLE12=Hound Dog
TTITLE13=Love Me Tender
TTITLE14=Too Much
TTITLE15=When My Blue Moon Turns To Gold Again
TTITLE16=Love Me
TTITLE17=Playing For Keeps
TTITLE18=Old Shep
TTITLE19=How's The World Treating You
TTITLE20=All Shook Up
TTITLE21=Have I Told You Lately That I Love You
TTITLE22=Teddy Bear (Let Me Be Your)
TTITLE23=Jailhouse Rock
TTITLE24=Don't
EXTD=
EXTT0=
EXTT1=
EXTT2=
EXTT3=
EXTT4=
EXTT5=
EXTT6=
EXTT7=
EXTT8=
EXTT9=
EXTT10=
EXTT11=
EXTT12=
EXTT13=
EXTT14=
EXTT15=
EXTT16=
EXTT17=
EXTT18=
EXTT19=
EXTT20=
EXTT21=
EXTT22=
EXTT23=
EXTT24=
PLAYORDER=
